<svg width="220" height="220" viewBox="0 0 220 220" fill="none" xmlns="http://www.w3.org/2000/svg">
<path d="M110 0C170.751 0 220 49.2487 220 110C220 166.157 177.918 212.483 123.568 219.169C121.243 189.008 118.75 157.821 118.75 157.821C118.744 157.788 118.245 155.068 124.984 152.023C136.797 146.663 145 134.41 145 120.298C145 96.6676 136.797 69.3174 131.875 47.1641V47H127.5L127.391 110.944C127.391 114.281 125.805 117.016 122.469 117.016C119.352 117.016 118.094 114.664 117.766 111.601C117.711 111.382 117.766 111.163 117.766 110.944L112.133 47H107.758L102.836 110.999L102.781 111.601C102.453 114.664 100.758 117.016 97.5859 117.016C94.2501 117.016 92.6095 114.281 92.6094 110.944L92.3906 47H88.0156C83.2031 69.4269 75 96.7223 75 120.353C75.0001 134.41 82.9844 146.663 95.0703 152.188C101.157 154.96 101.249 157.786 101.25 157.821C101.25 157.821 98.778 189.019 96.4609 219.173C42.0972 212.5 0 166.167 0 110C0 49.2487 49.2487 0 110 0Z" fill="#81B29A"/>
</svg>
